<svg width="495" height="260" viewBox="0 0 495 260" xmlns="http://www.w3.org/2000/svg">
  <style>
    .ttl { font: 600 11px 'Segoe UI',monospace; fill: #6b6b8a; letter-spacing: 2px; }
    .lng { font: 500 13px 'Segoe UI',monospace; fill: #e2e2f0; }
    .lbl { font: 400 11px 'Segoe UI',monospace; fill: #6b6b8a; }
  </style>
  <rect width="495" height="260" rx="10" fill="#0d0d14" stroke="#1e1e2e" stroke-width="1"/>
  <text x="24" y="28" class="ttl">LANGUAGES</text>
  <line x1="24" y1="36" x2="471" y2="36" stroke="#1e1e2e" stroke-width="1"/>
  <text x="24" y="66" class="lng">C</text>
  <rect x="90" y="59" width="340" height="6" rx="3" fill="#1e1e2e"/>
  <rect x="90" y="59" width="310" height="6" rx="3" fill="#a8c4ff"/>
  <text x="471" y="66" class="lbl" text-anchor="end">61.2%</text>
  <text x="24" y="98" class="lng">JS</text>
  <rect x="90" y="91" width="340" height="6" rx="3" fill="#1e1e2e"/>
  <rect x="90" y="91" width="74" height="6" rx="3" fill="#fff0a8"/>
  <text x="471" y="98" class="lbl" text-anchor="end">14.7%</text>
  <text x="24" y="130" class="lng">C++</text>
  <rect x="90" y="123" width="340" height="6" rx="3" fill="#1e1e2e"/>
  <rect x="90" y="123" width="53" height="6" rx="3" fill="#c4a8ff"/>
  <text x="471" y="130" class="lbl" text-anchor="end">10.6%</text>
  <text x="24" y="162" class="lng">CSS</text>
  <rect x="90" y="155" width="340" height="6" rx="3" fill="#1e1e2e"/>
  <rect x="90" y="155" width="29" height="6" rx="3" fill="#a8ffb8"/>
  <text x="471" y="162" class="lbl" text-anchor="end">5.9%</text>
  <text x="24" y="194" class="lng">Make</text>
  <rect x="90" y="187" width="340" height="6" rx="3" fill="#1e1e2e"/>
  <rect x="90" y="187" width="25" height="6" rx="3" fill="#d4a8ff"/>
  <text x="471" y="194" class="lbl" text-anchor="end">5.1%</text>
  <text x="24" y="226" class="lng">Python</text>
  <rect x="90" y="219" width="340" height="6" rx="3" fill="#1e1e2e"/>
  <rect x="90" y="219" width="12" height="6" rx="3" fill="#a8ffdc"/>
  <text x="471" y="226" class="lbl" text-anchor="end">2.5%</text>
</svg>